<svg viewBox="0 0 1200 800" xmlns="http://www.w3.org/2000/svg">
  <!-- Background -->
  <rect width="1200" height="800" fill="#ffffff" stroke="#e1e5e9" stroke-width="1"/>
  
  <!-- Left Sidebar -->
  <rect x="0" y="0" width="200" height="800" fill="#f8f9fa" stroke="#e1e5e9" stroke-width="1"/>
  
  <!-- Logo Area -->
  <rect x="15" y="15" width="170" height="40" rx="4" fill="#ffffff" stroke="#d6d9dc"/>
  <text x="25" y="37" font-family="Arial, sans-serif" font-size="14" font-weight="bold" fill="#2c3e50">TrendSpy</text>
  
  <!-- Navigation Items -->
  <g transform="translate(15, 70)">
    <rect x="0" y="0" width="170" height="32" rx="4" fill="#ffffff" stroke="#e1e5e9"/>
    <text x="12" y="20" font-family="Arial, sans-serif" font-size="12" fill="#5a6c7d">Dashboard</text>
    
    <rect x="0" y="40" width="170" height="32" rx="4" fill="#ffffff" stroke="#e1e5e9"/>
    <text x="12" y="60" font-family="Arial, sans-serif" font-size="12" fill="#5a6c7d">Analytics</text>
    
    <rect x="0" y="80" width="170" height="32" rx="4" fill="#ffffff" stroke="#e1e5e9"/>
    <text x="12" y="100" font-family="Arial, sans-serif" font-size="12" fill="#5a6c7d">Widgets</text>
    
    <rect x="0" y="120" width="170" height="32" rx="4" fill="#007bff" stroke="#0056b3"/>
    <text x="12" y="140" font-family="Arial, sans-serif" font-size="12" fill="white" font-weight="500">Trendy AI</text>
    <rect x="140" y="125" width="22" height="14" rx="7" fill="#28a745"/>
    <text x="147" y="134" font-family="Arial, sans-serif" font-size="8" fill="white">PRO</text>
    
    <rect x="0" y="160" width="170" height="32" rx="4" fill="#ffffff" stroke="#e1e5e9"/>
    <text x="12" y="180" font-family="Arial, sans-serif" font-size="12" fill="#5a6c7d">Reports</text>
    
    <rect x="0" y="200" width="170" height="32" rx="4" fill="#ffffff" stroke="#e1e5e9"/>
    <text x="12" y="220" font-family="Arial, sans-serif" font-size="12" fill="#5a6c7d">Alerts</text>
    
    <rect x="0" y="240" width="170" height="32" rx="4" fill="#ffffff" stroke="#e1e5e9"/>
    <text x="12" y="260" font-family="Arial, sans-serif" font-size="12" fill="#5a6c7d">Settings</text>
  </g>
  
  <!-- Main Content Area -->
  <rect x="200" y="0" width="680" height="800" fill="#ffffff" stroke="#e1e5e9" stroke-width="1"/>
  
  <!-- Header -->
  <rect x="200" y="0" width="680" height="56" fill="#f8f9fa" stroke="#e1e5e9" stroke-width="1"/>
  <text x="220" y="32" font-family="Arial, sans-serif" font-size="18" font-weight="600" fill="#2c3e50">Trendy AI Assistant</text>
  <rect x="750" y="14" width="70" height="28" rx="14" fill="#007bff" stroke="#0056b3"/>
  <text x="770" y="30" font-family="Arial, sans-serif" font-size="11" fill="white">New Chat</text>
  <circle cx="840" cy="28" r="14" fill="#6c757d"/>
  <text x="836" y="32" font-family="Arial, sans-serif" font-size="10" fill="white">JS</text>
  
  <!-- Chat Messages Container -->
  <rect x="220" y="76" width="640" height="600" fill="#fdfdfd" stroke="#f1f3f4" stroke-width="1"/>
  
  <!-- AI Message 1 -->
  <g transform="translate(240, 96)">
    <rect x="0" y="0" width="30" height="30" rx="6" fill="#e9ecef" stroke="#d6d9dc"/>
    <text x="12" y="18" font-family="Arial, sans-serif" font-size="10" fill="#5a6c7d">AI</text>
    <rect x="40" y="0" width="480" height="50" rx="8" fill="#f8f9fa" stroke="#e1e5e9"/>
    <text x="50" y="18" font-family="Arial, sans-serif" font-size="12" fill="#2c3e50">Hello! I'm Trendy, your personalized AI assistant.</text>
    <text x="50" y="32" font-family="Arial, sans-serif" font-size="12" fill="#2c3e50">Tell me about your business goals for trend analysis.</text>
    <text x="50" y="48" font-family="Arial, sans-serif" font-size="10" fill="#6c757d">2:30 PM</text>
  </g>
  
  <!-- User Message -->
  <g transform="translate(320, 166)">
    <rect x="0" y="0" width="460" height="40" rx="8" fill="#007bff" stroke="#0056b3"/>
    <text x="10" y="18" font-family="Arial, sans-serif" font-size="12" fill="white">SaaS company focusing on AI-powered retail analytics.</text>
    <text x="10" y="32" font-family="Arial, sans-serif" font-size="12" fill="white">What emerging trends should we monitor?</text>
    <rect x="470" y="5" width="30" height="30" rx="6" fill="#0056b3" stroke="#004085"/>
    <text x="482" y="23" font-family="Arial, sans-serif" font-size="10" fill="white">U</text>
  </g>
  
  <!-- AI Message 2 with Data Visualization -->
  <g transform="translate(240, 226)">
    <rect x="0" y="0" width="30" height="30" rx="6" fill="#e9ecef" stroke="#d6d9dc"/>
    <text x="12" y="18" font-family="Arial, sans-serif" font-size="10" fill="#5a6c7d">AI</text>
    <rect x="40" y="0" width="500" height="180" rx="8" fill="#f8f9fa" stroke="#e1e5e9"/>
    <text x="50" y="18" font-family="Arial, sans-serif" font-size="12" fill="#2c3e50">Key trends for AI-powered retail analytics:</text>
    <text x="50" y="32" font-family="Arial, sans-serif" font-size="12" fill="#2c3e50">• Predictive inventory management (+45% adoption)</text>
    <text x="50" y="46" font-family="Arial, sans-serif" font-size="12" fill="#2c3e50">• Computer vision analytics (+62% growth)</text>
    <text x="50" y="60" font-family="Arial, sans-serif" font-size="12" fill="#2c3e50">• Hyper-personalization (+34% implementation)</text>
    
    <!-- Data Visualization -->
    <rect x="50" y="75" width="470" height="90" rx="4" fill="#ffffff" stroke="#d6d9dc"/>
    <text x="60" y="90" font-family="Arial, sans-serif" font-size="11" font-weight="600" fill="#2c3e50">AI Adoption Growth (YoY)</text>
    
    <!-- Chart Elements -->
    <g transform="translate(70, 105)">
      <!-- Y-axis -->
      <line x1="0" y1="0" x2="0" y2="50" stroke="#d6d9dc" stroke-width="1"/>
      <!-- X-axis -->
      <line x1="0" y1="50" x2="400" y2="50" stroke="#d6d9dc" stroke-width="1"/>
      
      <!-- Bars -->
      <rect x="20" y="25" width="40" height="25" fill="#007bff" opacity="0.7"/>
      <rect x="80" y="15" width="40" height="35" fill="#007bff" opacity="0.7"/>
      <rect x="140" y="30" width="40" height="20" fill="#007bff" opacity="0.7"/>
      <rect x="200" y="35" width="40" height="15" fill="#007bff" opacity="0.7"/>
      <rect x="260" y="20" width="40" height="30" fill="#007bff" opacity="0.7"/>
      <rect x="320" y="28" width="40" height="22" fill="#007bff" opacity="0.7"/>
      
      <!-- Labels -->
      <text x="35" y="65" font-family="Arial, sans-serif" font-size="9" fill="#5a6c7d">Predict</text>
      <text x="95" y="65" font-family="Arial, sans-serif" font-size="9" fill="#5a6c7d">Vision</text>
      <text x="150" y="65" font-family="Arial, sans-serif" font-size="9" fill="#5a6c7d">Personal</text>
      <text x="215" y="65" font-family="Arial, sans-serif" font-size="9" fill="#5a6c7d">Voice</text>
      <text x="270" y="65" font-family="Arial, sans-serif" font-size="9" fill="#5a6c7d">Forecast</text>
      <text x="330" y="65" font-family="Arial, sans-serif" font-size="9" fill="#5a6c7d">Auto</text>
    </g>
    
    <text x="50" y="178" font-family="Arial, sans-serif" font-size="10" fill="#6c757d">2:32 PM</text>
  </g>
  
  <!-- Widget Recommendation -->
  <g transform="translate(280, 426)">
    <rect x="0" y="0" width="480" height="80" rx="8" fill="#ffffff" stroke="#007bff" stroke-dasharray="2,2"/>
    <rect x="10" y="8" width="460" height="24" rx="4" fill="#e7f3ff" stroke="#b3d7ff"/>
    <text x="20" y="22" font-family="Arial, sans-serif" font-size="11" font-weight="600" fill="#0056b3">Recommended Widget</text>
    <rect x="380" y="10" width="80" height="20" rx="10" fill="#007bff"/>
    <text x="405" y="22" font-family="Arial, sans-serif" font-size="9" fill="white">Add Widget</text>
    
    <text x="20" y="48" font-family="Arial, sans-serif" font-size="12" font-weight="500" fill="#2c3e50">Retail Analytics Trends Dashboard</text>
    <text x="20" y="62" font-family="Arial, sans-serif" font-size="10" fill="#5a6c7d">Real-time tracking of AI adoption across retail sectors</text>
    <text x="20" y="74" font-family="Arial, sans-serif" font-size="10" fill="#5a6c7d">Tags: Retail, AI, Analytics, Predictive, Computer Vision</text>
  </g>
  
  <!-- Chat Input Area -->
  <rect x="220" y="696" width="640" height="60" fill="#f8f9fa" stroke="#e1e5e9" stroke-width="1"/>
  <rect x="240" y="711" width="560" height="30" rx="15" fill="#ffffff" stroke="#d6d9dc"/>
  <text x="255" y="728" font-family="Arial, sans-serif" font-size="12" fill="#6c757d">Ask about trends, predictions, or insights...</text>
  
  <!-- Input Tools -->
  <rect x="720" y="716" width="20" height="20" rx="4" fill="#f8f9fa" stroke="#d6d9dc"/>
  <text x="727" y="728" font-family="Arial, sans-serif" font-size="10" fill="#5a6c7d">📎</text>
  <rect x="750" y="716" width="20" height="20" rx="4" fill="#f8f9fa" stroke="#d6d9dc"/>
  <text x="757" y="728" font-family="Arial, sans-serif" font-size="10" fill="#5a6c7d">🎤</text>
  
  <circle cx="820" cy="726" r="14" fill="#007bff"/>
  <polygon points="815,722 815,730 825,726" fill="white"/>
  
  <!-- Right Sidebar -->
  <rect x="880" y="0" width="320" height="800" fill="#f8f9fa" stroke="#e1e5e9" stroke-width="1"/>
  
  <!-- Chat History Section -->
  <g transform="translate(900, 20)">
    <text x="0" y="16" font-family="Arial, sans-serif" font-size="14" font-weight="600" fill="#2c3e50">Chat History</text>
    <rect x="200" y="0" width="50" height="20" rx="4" fill="#28a745"/>
    <text x="215" y="12" font-family="Arial, sans-serif" font-size="9" fill="white">New</text>
    
    <!-- Active Chat -->
    <rect x="0" y="30" width="280" height="36" rx="6" fill="#007bff" stroke="#0056b3"/>
    <rect x="8" y="36" width="24" height="24" rx="4" fill="#ffffff" opacity="0.2"/>
    <text x="40" y="46" font-family="Arial, sans-serif" font-size="12" fill="white" font-weight="500">Retail Analytics Trends</text>
    <text x="40" y="58" font-family="Arial, sans-serif" font-size="10" fill="#b3d7ff">Today, 2:30 PM • 5 messages</text>
    
    <!-- Other Chats -->
    <rect x="0" y="76" width="280" height="36" rx="6" fill="#ffffff" stroke="#e1e5e9"/>
    <rect x="8" y="82" width="24" height="24" rx="4" fill="#f8f9fa" stroke="#d6d9dc"/>
    <text x="40" y="92" font-family="Arial, sans-serif" font-size="12" fill="#2c3e50">Market Expansion Strategy</text>
    <text x="40" y="104" font-family="Arial, sans-serif" font-size="10" fill="#6c757d">Yesterday • 12 messages</text>
    
    <rect x="0" y="122" width="280" height="36" rx="6" fill="#ffffff" stroke="#e1e5e9"/>
    <rect x="8" y="128" width="24" height="24" rx="4" fill="#f8f9fa" stroke="#d6d9dc"/>
    <text x="40" y="138" font-family="Arial, sans-serif" font-size="12" fill="#2c3e50">Customer Behavior Analysis</text>
    <text x="40" y="150" font-family="Arial, sans-serif" font-size="10" fill="#6c757d">May 17 • 8 messages</text>
  </g>
  
  <!-- Suggested Questions Section -->
  <g transform="translate(900, 200)">
    <text x="0" y="16" font-family="Arial, sans-serif" font-size="14" font-weight="600" fill="#2c3e50">Suggested Topics</text>
    
    <!-- Topic Filters -->
    <g transform="translate(0, 25)">
      <rect x="0" y="0" width="35" height="22" rx="11" fill="#007bff"/>
      <text x="12" y="13" font-family="Arial, sans-serif" font-size="9" fill="white">All</text>
      
      <rect x="42" y="0" width="40" height="22" rx="11" fill="#ffffff" stroke="#d6d9dc"/>
      <text x="57" y="13" font-family="Arial, sans-serif" font-size="9" fill="#5a6c7d">Retail</text>
      
      <rect x="90" y="0" width="25" height="22" rx="11" fill="#ffffff" stroke="#d6d9dc"/>
      <text x="98" y="13" font-family="Arial, sans-serif" font-size="9" fill="#5a6c7d">AI</text>
      
      <rect x="123" y="0" width="50" height="22" rx="11" fill="#ffffff" stroke="#d6d9dc"/>
      <text x="140" y="13" font-family="Arial, sans-serif" font-size="9" fill="#5a6c7d">Analytics</text>
    </g>
    
    <!-- Question Items -->
    <g transform="translate(0, 55)">
      <rect x="0" y="0" width="280" height="32" rx="6" fill="#ffffff" stroke="#e1e5e9"/>
      <text x="8" y="14" font-family="Arial, sans-serif" font-size="11" fill="#2c3e50">What KPIs measure AI analytics effectiveness?</text>
      <text x="8" y="26" font-family="Arial, sans-serif" font-size="9" fill="#6c757d">Retail Analytics • Performance Metrics</text>
      
      <rect x="0" y="40" width="280" height="32" rx="6" fill="#ffffff" stroke="#e1e5e9"/>
      <text x="8" y="54" font-family="Arial, sans-serif" font-size="11" fill="#2c3e50">Computer vision ROI in retail implementations?</text>
      <text x="8" y="66" font-family="Arial, sans-serif" font-size="9" fill="#6c757d">Computer Vision • ROI Analysis</text>
      
      <rect x="0" y="80" width="280" height="32" rx="6" fill="#ffffff" stroke="#e1e5e9"/>
      <text x="8" y="94" font-family="Arial, sans-serif" font-size="11" fill="#2c3e50">AI regulation impact on retail analytics?</text>
      <text x="8" y="106" font-family="Arial, sans-serif" font-size="9" fill="#6c757d">Regulatory • Future Trends</text>
    </g>
  </g>
  
  <!-- Business Context Section -->
  <g transform="translate(900, 360)">
    <text x="0" y="16" font-family="Arial, sans-serif" font-size="14" font-weight="600" fill="#2c3e50">Business Context</text>
    
    <rect x="0" y="25" width="280" height="28" rx="6" fill="#ffffff" stroke="#d6d9dc"/>
    <text x="8" y="42" font-family="Arial, sans-serif" font-size="11" fill="#2c3e50">TechVision Inc. (SaaS Analytics)</text>
    <polygon points="260,36 268,39 260,42" fill="#5a6c7d"/>
    
    <!-- Insight Box -->
    <rect x="0" y="60" width="280" height="50" rx="6" fill="#e7f3ff" stroke="#b3d7ff"/>
    <text x="8" y="76" font-family="Arial, sans-serif" font-size="11" font-weight="600" fill="#0056b3">Business Alignment</text>
    <text x="8" y="88" font-family="Arial, sans-serif" font-size="10" fill="#2c3e50">86% aligned with predictive retail analytics trends</text>
    <text x="8" y="100" font-family="Arial, sans-serif" font-size="9" fill="#5a6c7d">High market opportunity score</text>
  </g>
  
  <!-- Data Sources Section -->
  <g transform="translate(900, 480)">
    <text x="0" y="16" font-family="Arial, sans-serif" font-size="14" font-weight="600" fill="#2c3e50">Data Sources</text>
    
    <!-- Source Items -->
    <g transform="translate(0, 25)">
      <rect x="0" y="0" width="280" height="28" rx="6" fill="#ffffff" stroke="#e1e5e9"/>
      <rect x="6" y="6" width="16" height="16" rx="3" fill="#007bff" opacity="0.2"/>
      <text x="28" y="17" font-family="Arial, sans-serif" font-size="11" fill="#2c3e50">Retail Analytics Database</text>
      <rect x="240" y="8" width="32" height="12" rx="6" fill="#28a745"/>
      <circle cx="248" cy="14" r="4" fill="#ffffff"/>
      
      <rect x="0" y="35" width="280" height="28" rx="6" fill="#ffffff" stroke="#e1e5e9"/>
      <rect x="6" y="41" width="16" height="16" rx="3" fill="#6f42c1" opacity="0.2"/>
      <text x="28" y="52" font-family="Arial, sans-serif" font-size="11" fill="#2c3e50">Industry News Feed</text>
      <rect x="240" y="43" width="32" height="12" rx="6" fill="#28a745"/>
      <circle cx="248" cy="49" r="4" fill="#ffffff"/>
      
      <rect x="0" y="70" width="280" height="28" rx="6" fill="#ffffff" stroke="#e1e5e9"/>
      <rect x="6" y="76" width="16" height="16" rx="3" fill="#17a2b8" opacity="0.2"/>
      <text x="28" y="87" font-family="Arial, sans-serif" font-size="11" fill="#2c3e50">Market Research Reports</text>
      <rect x="240" y="78" width="32" height="12" rx="6" fill="#6c757d"/>
      <circle cx="248" cy="84" r="4" fill="#ffffff"/>
    </g>
  </g>
  
  <!-- Floating Action Button -->
  <circle cx="1150" cy="740" r="24" fill="#007bff" stroke="#0056b3" stroke-width="2"/>
  <text x="1144" y="746" font-family="Arial, sans-serif" font-size="14" fill="white">AI</text>
  
  <!-- Section Labels -->
  <text x="100" y="790" font-family="Arial, sans-serif" font-size="11" font-weight="500" fill="#6c757d" text-anchor="middle">Navigation</text>
  <text x="540" y="790" font-family="Arial, sans-serif" font-size="11" font-weight="500" fill="#6c757d" text-anchor="middle">Chat Interface</text>
  <text x="1040" y="790" font-family="Arial, sans-serif" font-size="11" font-weight="500" fill="#6c757d" text-anchor="middle">Context Panels</text>
  
</svg>